<?xml version="1.0" encoding="UTF-8"?>
<svg id="Capa_1" xmlns="http://www.w3.org/2000/svg" version="1.1" viewBox="0 0 841.9 123.3">
  <!-- Generator: Adobe Illustrator 30.3.0, SVG Export Plug-In . SVG Version: 2.1.3 Build 182)  -->
  <defs>
    <style>
      .st0 {
        fill: #fff;
      }

      .st1 {
        display: none;
      }

      .st2 {
        fill: #3abff0;
      }
    </style>
  </defs>
  <rect class="st1" x="1.5" y="-3.9" width="840.4" height="603.1"/>
  <g>
    <g>
      <rect class="st2" x="17.4" y="19.5" width="13.4" height="13.4"/>
      <path class="st0" d="M30.5,89.3v-48.2h-12.7v48.2h12.7ZM114.7,89.8v-11.8c-1.9,0-3.4,0-4.6-.3-1.3-.2-2.3-.7-3-1.3-.7-.7-1.1-1.6-1.3-2.9-.2-1.2-.3-2.8-.3-4.7v-16.9h9.2v-10.9h-9.2v-18.8h-12.7v46.6c0,4,.3,7.3,1,10,.7,2.6,1.8,4.8,3.4,6.4s3.7,2.8,6.2,3.5c2.6.7,5.8,1,9.7,1h1.7ZM187.5,89.3V18.5h-12.7v70.7h12.7ZM80.6,45.8c-3.5-3.8-8.5-5.7-14.8-5.7s-5.8.6-8.3,1.9c-2.5,1.2-4.6,3-6.3,5.1l-.7.9v-6.9h-12.5v48.2h12.6v-25.7,1.8-.9c.1-4.5,1.2-7.9,3.3-10,2.2-2.3,5-3.4,8.1-3.4s6.5,1.1,8.3,3.3c1.8,2.2,2.8,5.3,2.8,9.2h0v25.6h12.8v-27.3c0-6.9-1.8-12.3-5.3-16.1ZM168.2,65.1c0-3.5-.6-6.7-1.8-9.8-1.2-3-3-5.7-5.1-8-2.2-2.3-4.8-4-7.9-5.3s-6.4-1.9-10.1-1.9-6.8.7-9.8,2c-3,1.3-5.7,3.1-8,5.3-2.2,2.2-4,4.9-5.3,8-1.3,3-2,6.3-2,9.8s.6,6.8,1.9,9.8c1.2,3,3,5.7,5.2,8,2.2,2.2,4.9,4,8.1,5.3,3.1,1.3,6.6,2,10.3,2,10.8,0,17.4-4.9,21.4-9.5l-9.1-7c-1.9,2.3-6.5,5.4-12.2,5.4s-6.5-.8-8.8-2.5c-2.2-1.6-3.8-3.9-4.6-6.7v-.4c-.1,0,37.7,0,37.7,0v-4.5h0ZM130.4,60.7c0-3.5,4-9.7,12.8-9.7,8.7,0,12.8,6.1,12.8,9.7h-25.6Z"/>
      <path class="st0" d="M202,83c-.2-.6-.6-1-1-1.5-.4-.4-.9-.8-1.5-1-.6-.2-1.2-.4-1.8-.4s-1.2.1-1.8.4c-.6.2-1,.6-1.5,1-.4.4-.8.9-1,1.5-.2.6-.4,1.2-.4,1.8s.1,1.2.4,1.8.6,1,1,1.5c.4.4.9.8,1.5,1s1.2.4,1.8.4,1.2-.1,1.8-.4c.6-.2,1-.6,1.5-1,.4-.4.8-.9,1-1.5.2-.6.4-1.2.4-1.8s-.1-1.2-.4-1.8ZM201.2,86.3c-.2.5-.5.9-.8,1.2-.3.3-.8.6-1.2.8s-1,.3-1.5.3-1,0-1.5-.3c-.5-.2-.9-.5-1.2-.8s-.6-.8-.8-1.2c-.2-.5-.3-1-.3-1.5s0-1,.3-1.5c.2-.5.5-.9.8-1.2.3-.3.8-.6,1.2-.8s1-.3,1.5-.3,1,0,1.5.3c.5.2.9.5,1.2.8s.6.8.8,1.2c.2.5.3,1,.3,1.5,0,.6,0,1-.3,1.5ZM198.6,85.2c.4,0,.7-.2.9-.4s.4-.6.4-1-.1-.9-.5-1.2c-.3-.3-.8-.4-1.4-.4h-2.1v5.4h1v-2.2h.7l1.3,2.2h1l-1.4-2.3ZM198,84.4h-1.2v-1.5h1.2c.1,0,.3,0,.4,0,.1,0,.2.1.3.2s0,.2,0,.4,0,.3,0,.4c0,0-.2.2-.3.2-.1,0-.3,0-.4,0Z"/>
    </g>
    <path class="st0" d="M279.1,32.3v19.5h18.8v5h-18.8v19.7h-5.3v-19.7h-18.8v-5h18.8v-19.5h5.3Z"/>
    <g>
      <polygon class="st0" points="792.8 29 799.1 39.4 775 54.8 767.4 45.4 792.8 29"/>
      <path class="st0" d="M378.8,74.2c3.5,6.2,12.8,5.3,20.9.1-8.8-53.4,40.7-52,16.9,1.3-2.3,3,5.7,3.8,10.4-.2v10.7c-8.3,5.6-17.1,2.8-20.6-.9-19.6,13.2-45.8,5.1-41.4-19.3-18.2-34.5,12.9-50.7,32-42.4v14.1c-15.1-6.8-27,3.7-23.1,16.2,19.9-14.9,33.7,21.8,4.8,20.3ZM378.9,63c0,1.5,1.2,2.8,2.8,2.8s2.8-1.2,2.8-2.8-1.2-2.8-2.8-2.8-2.8,1.2-2.8,2.8ZM381.7,63,408.6,58.1c-.5,4,0,7.4,1.3,7.6,1.2.1,2.6-3,3.1-7,.5-4,0-7.4-1.3-7.6-1.2-.1-2.6,3-3.1,7ZM410.8,58.4"/>
      <path class="st0" d="M475.2,37.5c-47.5-11.4-34.5,62.7,1.3,34.9-2.7-12.5,13.2-17.1,13.8-8.3-.2,4.3.1,11.2,5.3,11.4,4.9.3,8.2-5.5,2.7-6.2-21.4-6.7,2.1-39,15.1-13,5.4,0,10.2,1.7,13.3,6.2.3-2.2,4.9-4.9,8.5-4v11.2c-3.6.2-6.4,1.9-6.3,5.8v11.2h-9.8v-10.7c0-3-2.1-5-6.6-4.9,0,9.1-13.8,21.3-28.8,12.1-58.9,37.8-74.8-67.4-8.5-58.2v12.5ZM499.5,58.4c0,1.1.9,2,2,2s2-.9,2-2-.9-2-2-2-2,.9-2,2ZM501.5,58.4"/>
      <path class="st0" d="M554.6,34.3l-2,26h3.4c16.8-34.3,50.1-2,14.1,13.7,4.8,6.5,12,3.7,17.7-.4v12.5c-7.2,7.2-25.6,6.8-31.2-9.5-1.8-4.7-4.7-3.7-4.6-2.1v13.5h-10.9v-17.9h-2.6v-11.1h3.7l1.6-24.5h10.9ZM569.2,58.8c-1.4,1.9-1.7,4-.8,4.7.9.7,2.8-.4,4.1-2.3,1.4-1.9,1.7-4,.8-4.7-.9-.7-2.8.4-4.1,2.3ZM570.9,60"/>
      <path class="st0" d="M619.1,5.9l3.4,41c5.6-.7,14.8.7,19.3,10.7,4.9-6.7,23.5-11,25.5,13.9v14.1h-12.5v-14.3c-.1-7.8-9.1-7.8-9.2-.2v17.7h-11.9l-1.1-21c-.9-6.5-11-10.3-8.5-1.1.4,3.8,6.9,48.9-13,50.8-18.4-.9-16.9-47.5.2-64.7l-3.7-46.4,11.5-.3ZM609.7,86.2c-.2,6.9.6,12.5,1.8,12.6,1.2,0,2.4-5.5,2.6-12.4.2-6.9-.5-12.5-1.8-12.6-1.2,0-2.4,5.5-2.6,12.4ZM612,86.3"/>
      <path class="st0" d="M695.6,83.9v-3.9c-10,7.2-26.2,8.3-25.7-9.5,2-12.2,15.3-23.1,35.9-24.1v12.4c-15.9,1-24.1,7.7-22.2,13.9,1.6,1.7,10.2-2.9,13.3-11.6h11.8v16.2s4.8-1.6,7.2-2.6c-8.3-22.2,2.5-40.7,13.2-39.1,17.6,2.9,13.3,25.3,2.7,39.4,1.8,2.7,6.2,4.4,11.1,2.1-11.5-34.4,36.4-33.1,24.8-5,10.2-2.7,30.3-21,42.8-20.3,23.2-.4,17.2,38.2-14.7,39.7v-12.5c1.8-.4,9.7-2.9,13.9-7.2,2.7-2.9.3-11.1-8.1-5.8l-28,17.2c-4.9,2.7-13.2,4.3-17.2,1.1-8.6,6.8-28.8,9.5-34.9-.9l-12.8,8.8c1.1,8.8-.9,23.6-15.9,22.5-16.2-1.3-16.7-23.6,2.8-31ZM692.3,99.4c-.1,1.7.9,3.1,2.3,3.2,1.4,0,2.6-1.2,2.7-2.8.1-1.7-.9-3.1-2.3-3.2-1.4,0-2.6,1.2-2.7,2.8ZM694.8,99.6,724.2,55.9c-.5,3.8,0,7,1.1,7.2,1.2.2,2.5-2.8,3.1-6.6.5-3.8,0-7-1.1-7.2s-2.6,2.8-3.1,6.6ZM726.3,56.2,753,66.4c0,2.4,1.3,4.4,2.9,4.4s2.9-2,2.9-4.4-1.3-4.4-2.9-4.4-2.9,2-2.9,4.4ZM755.9,66.4"/>
    </g>
  </g>
</svg>