<?xml version="1.0" encoding="UTF-8"?>
<svg id="Capa_1" xmlns="http://www.w3.org/2000/svg" version="1.1" xmlns:xlink="http://www.w3.org/1999/xlink" viewBox="0 0 453.9 595.3">
  <!-- Generator: Adobe Illustrator 30.3.0, SVG Export Plug-In . SVG Version: 2.1.3 Build 182)  -->
  <defs>
    <style>
      .st0 {
        fill: url(#Degradado_sin_nombre_3);
      }

      .st1 {
        display: none;
      }
    </style>
    <linearGradient id="Degradado_sin_nombre_3" data-name="Degradado sin nombre 3" x1="22.8" y1="297.6" x2="431.1" y2="297.6" gradientUnits="userSpaceOnUse">
      <stop offset="0" stop-color="#41a535"/>
      <stop offset="1" stop-color="#3abff0"/>
    </linearGradient>
  </defs>
  <rect class="st1" x="-196.5" y="-3.9" width="840.4" height="603.1"/>
  <path class="st0" d="M431.1,360.1c0,9.2-7.5,16.7-16.7,16.7s-16.7-7.5-16.7-16.7,8.3-12.3,8.3-28.3v-122.9c0-4.6,3.7-8.4,8.4-8.4s8.4,3.7,8.4,8.4v122.9c0,15.9,8.3,15.5,8.3,28.3M356.1,250.1c0,9.2-7.5,16.7-16.7,16.7s-16.7-7.5-16.7-16.7,8.3-12.3,8.3-28.3v-127.5c0-4.6,3.8-8.4,8.4-8.4s8.4,3.7,8.4,8.4v127.5c0,15.9,8.3,15.5,8.3,28.3ZM318.6,271.7c0,9.2-7.5,16.7-16.7,16.7s-16.7-7.5-16.7-16.7,8.3-12.3,8.3-28.3V69.3c0-4.6,3.7-8.4,8.4-8.4s8.4,3.7,8.4,8.4v174.2c0,15.9,8.3,15.5,8.3,28.3ZM318.6,549.5c0,9.2-7.5,16.7-16.7,16.7s-16.7-7.5-16.7-16.7,8.3-12.3,8.3-28.3v-171.7c0-4.6,3.7-8.4,8.4-8.4s8.4,3.7,8.4,8.4v171.7c0,15.9,8.3,15.5,8.3,28.3ZM356.1,510.9c0,9.2-7.5,16.7-16.7,16.7s-16.7-7.5-16.7-16.7,8.3-12.3,8.3-28.3v-154.8c0-4.6,3.7-8.4,8.4-8.4s8.4,3.7,8.4,8.4v154.8c0,15.9,8.3,15.5,8.3,28.3ZM393.6,471.2c0,9.2-7.5,16.7-16.7,16.7s-16.7-7.5-16.7-16.7,8.3-12.3,8.3-28.3V140c0-4.6,3.7-8.4,8.4-8.4s8.4,3.7,8.4,8.4v302.9c-28.3-571.9,8.3,15.5,8.3,28.3ZM218.6,37.5c0-4.6,3.7-8.4,8.4-8.4s8.4,3.7,8.4,8.4v361.3c0,15.9,8.3,15.5,8.3,28.3s-7.5,16.7-16.7,16.7-16.7-7.5-16.7-16.7,8.3-12.3,8.3-28.3V37.5ZM22.8,360.1c0,9.2,7.5,16.7,16.7,16.7s16.7-7.5,16.7-16.7-8.3-12.3-8.3-28.3v-122.9c0-4.6-3.7-8.4-8.4-8.4s-8.4,3.7-8.4,8.4v122.9c0,15.9-8.3,15.5-8.3,28.3ZM97.8,250.1c0,9.2,7.5,16.7,16.7,16.7s16.7-7.5,16.7-16.7-8.3-12.3-8.3-28.3v-127.5c0-4.6-3.8-8.4-8.4-8.4s-8.4,3.7-8.4,8.4v127.5c0,15.9-8.3,15.5-8.3,28.3ZM135.3,271.7c0,9.2,7.5,16.7,16.7,16.7s16.7-7.5,16.7-16.7-8.3-12.3-8.3-28.3V69.3c0-4.6-3.7-8.4-8.4-8.4s-8.4,3.7-8.4,8.4v174.2c0,15.9-8.3,15.5-8.3,28.3ZM135.3,549.5c0,9.2,7.5,16.7,16.7,16.7s16.7-7.5,16.7-16.7-8.3-12.3-8.3-28.3v-171.7c0-4.6-3.7-8.4-8.4-8.4s-8.4,3.7-8.4,8.4v171.7c0,15.9-8.3,15.5-8.3,28.3ZM97.8,510.9c0,9.2,7.5,16.7,16.7,16.7s16.7-7.5,16.7-16.7-8.3-12.3-8.3-28.3v-154.8c0-4.6-3.7-8.4-8.4-8.4s-8.4,3.7-8.4,8.4v154.8c0,15.9-8.3,15.5-8.3,28.3ZM60.3,471.2c0,9.2,7.5,16.7,16.7,16.7s16.7-7.5,16.7-16.7-8.3-12.3-8.3-28.3V140c0-4.6-3.7-8.4-8.4-8.4s-8.4,3.7-8.4,8.4v302.9c0,15.9-8.3,15.5-8.3,28.3ZM189.4,36.9c-4.6,0-8.4,3.7-8.4,8.4v219.8c0,15.9-8.3,15.5-8.3,28.3s7.5,16.7,16.7,16.7,16.7-7.5,16.7-16.7-8.3-12.3-8.3-28.3V45.3c0-4.6-3.7-8.4-8.4-8.4ZM264.5,34.4c4.6,0,8.4,3.7,8.4,8.4v222.4c0,15.9,8.3,15.5,8.3,28.3s-7.5,16.7-16.7,16.7-16.7-7.5-16.7-16.7,8.3-12.3,8.3-28.3V42.7c0-4.6,3.7-8.4,8.4-8.4Z"/>
</svg>