<?xml version="1.0" encoding="UTF-8"?>
<svg id="Capa_1" xmlns="http://www.w3.org/2000/svg" version="1.1" xmlns:xlink="http://www.w3.org/1999/xlink" viewBox="0 0 841.9 595.3">
  <!-- Generator: Adobe Illustrator 30.3.0, SVG Export Plug-In . SVG Version: 2.1.3 Build 182)  -->
  <defs>
    <style>
      .st0 {
        fill: #fff;
      }

      .st1 {
        fill: url(#Degradado_sin_nombre_3);
      }

      .st2 {
        fill: #028d3c;
      }

      .st3 {
        display: none;
      }

      .st4 {
        fill: #3abff0;
      }
    </style>
    <linearGradient id="Degradado_sin_nombre_3" data-name="Degradado sin nombre 3" x1="96.7" y1="296.4" x2="295.1" y2="296.4" gradientUnits="userSpaceOnUse">
      <stop offset="0" stop-color="#41a535"/>
      <stop offset="1" stop-color="#3abff0"/>
    </linearGradient>
  </defs>
  <rect class="st3" x="1.5" y="-3.9" width="840.4" height="603.1"/>
  <path class="st0" d="M294.9,327c0,4.5-3.6,8.1-8.1,8.1s-8.1-3.6-8.1-8.1,4-6,4-13.7v-59.6c0-2.2,1.8-4.1,4.1-4.1s4.1,1.8,4.1,4.1v59.6c0,7.7,4,7.5,4,13.7M258.5,273.6c0,4.5-3.6,8.1-8.1,8.1s-8.1-3.6-8.1-8.1,4-6,4-13.7v-61.8c0-2.2,1.8-4.1,4.1-4.1s4.1,1.8,4.1,4.1v61.8c0,7.7,4,7.5,4,13.7ZM240.3,284.1c0,4.5-3.6,8.1-8.1,8.1s-8.1-3.6-8.1-8.1,4-6,4-13.7v-84.5c0-2.2,1.8-4.1,4.1-4.1s4.1,1.8,4.1,4.1v84.5c0,7.7,4,7.5,4,13.7ZM240.3,418.8c0,4.5-3.6,8.1-8.1,8.1s-8.1-3.6-8.1-8.1,4-6,4-13.7v-83.3c0-2.2,1.8-4.1,4.1-4.1s4.1,1.8,4.1,4.1v83.3c0,7.7,4,7.5,4,13.7ZM258.5,400.1c0,4.5-3.6,8.1-8.1,8.1s-8.1-3.6-8.1-8.1,4-6,4-13.7v-75.1c0-2.2,1.8-4.1,4.1-4.1s4.1,1.8,4.1,4.1v75.1c0,7.7,4,7.5,4,13.7ZM276.7,380.9c0,4.5-3.6,8.1-8.1,8.1s-8.1-3.6-8.1-8.1,4-6,4-13.7v-146.9c0-2.2,1.8-4.1,4.1-4.1s4.1,1.8,4.1,4.1v146.9c-13.7-277.3,4,7.5,4,13.7ZM191.8,170.5c0-2.2,1.8-4.1,4.1-4.1s4.1,1.8,4.1,4.1v175.2c0,7.7,4,7.5,4,13.7s-3.6,8.1-8.1,8.1-8.1-3.6-8.1-8.1,4-6,4-13.7v-175.2ZM96.8,327c0,4.5,3.6,8.1,8.1,8.1s8.1-3.6,8.1-8.1-4-6-4-13.7v-59.6c0-2.2-1.8-4.1-4.1-4.1s-4.1,1.8-4.1,4.1v59.6c0,7.7-4,7.5-4,13.7ZM133.2,273.6c0,4.5,3.6,8.1,8.1,8.1s8.1-3.6,8.1-8.1-4-6-4-13.7v-61.8c0-2.2-1.8-4.1-4.1-4.1s-4.1,1.8-4.1,4.1v61.8c0,7.7-4,7.5-4,13.7ZM151.4,284.1c0,4.5,3.6,8.1,8.1,8.1s8.1-3.6,8.1-8.1-4-6-4-13.7v-84.5c0-2.2-1.8-4.1-4.1-4.1s-4.1,1.8-4.1,4.1v84.5c0,7.7-4,7.5-4,13.7ZM151.4,418.8c0,4.5,3.6,8.1,8.1,8.1s8.1-3.6,8.1-8.1-4-6-4-13.7v-83.3c0-2.2-1.8-4.1-4.1-4.1s-4.1,1.8-4.1,4.1v83.3c0,7.7-4,7.5-4,13.7ZM133.2,400.1c0,4.5,3.6,8.1,8.1,8.1s8.1-3.6,8.1-8.1-4-6-4-13.7v-75.1c0-2.2-1.8-4.1-4.1-4.1s-4.1,1.8-4.1,4.1v75.1c0,7.7-4,7.5-4,13.7ZM115,380.9c0,4.5,3.6,8.1,8.1,8.1s8.1-3.6,8.1-8.1-4-6-4-13.7v-146.9c0-2.2-1.8-4.1-4.1-4.1s-4.1,1.8-4.1,4.1v146.9c0,7.7-4,7.5-4,13.7ZM177.7,170.3c-2.2,0-4.1,1.8-4.1,4.1v106.6c0,7.7-4,7.5-4,13.7s3.6,8.1,8.1,8.1,8.1-3.6,8.1-8.1-4-6-4-13.7v-106.6c0-2.2-1.8-4.1-4.1-4.1ZM214,169c2.2,0,4.1,1.8,4.1,4.1v107.9c0,7.7,4,7.5,4,13.7s-3.6,8.1-8.1,8.1-8.1-3.6-8.1-8.1,4-6,4-13.7v-107.9c0-2.2,1.8-4.1,4.1-4.1Z"/>
  <g>
    <g>
      <g>
        <path class="st2" d="M378,198.7v45.7h37.3v-45.7h13v43c0,5.1-1,8.6-2.9,10.5-1.9,1.9-5.6,2.8-11.1,2.8h-35.6c-5.4,0-9.1-.9-11-2.8-1.9-1.9-2.9-5.4-2.9-10.5v-43h13.1Z"/>
        <path class="st2" d="M452.6,255v-56.3h13.1v45.7h42.2v10.6h-55.3Z"/>
        <path class="st2" d="M535.7,208.8v46.2h-13.1v-46.2h-25.8v-10.1h64.8v10.1h-25.9Z"/>
        <path class="st2" d="M573.1,255v-56.3h48.1c4.5,0,7.7.9,9.7,2.6,2,1.7,3,4.5,3,8.3v13.2c0,3.8-1,6.6-3,8.3-2,1.7-5.2,2.6-9.7,2.6h-7.3l26,21.2h-18.8l-22.7-21.2h-12.4v21.2h-12.9ZM615.4,208.5h-29.4v15.6h29.4c2.3,0,3.8-.3,4.7-1,.8-.7,1.3-1.8,1.3-3.5v-6.8c0-1.6-.4-2.8-1.3-3.4-.8-.7-2.4-1-4.7-1Z"/>
        <g>
          <polygon class="st2" points="641.3 255 654.3 255 676.8 213.5 670.8 202.7 641.3 255"/>
          <polygon class="st2" points="673.1 198.7 685.7 198.7 718 255 703.3 255 673.1 198.7"/>
        </g>
      </g>
      <g>
        <path class="st4" d="M389.5,299.8h-40.9v35.6h40.9v-12.5h-21.4v-9.6h34.1v19.4c0,5.1-1,8.6-2.9,10.5-1.9,1.9-5.6,2.8-11.1,2.8h-38.8c-5.5,0-9.2-.9-11.1-2.8-1.9-1.9-2.9-5.4-2.9-10.5v-29.6c0-5.1,1-8.6,2.9-10.5,1.9-1.9,5.6-2.8,11.1-2.8h38.8c5.4,0,9.1.9,11,2.8,2,1.8,2.9,5.2,2.9,10v2.7h-12.7v-5.4Z"/>
        <path class="st4" d="M502.7,346v-56.3h10.6l26.5,34,25.9-34h10.5v56.3h-12.1v-34.8c0-.7,0-1.5.1-2.6,0-1,.2-2.2.3-3.5-.7,1.5-1.3,2.7-1.9,3.6-.5.9-1,1.7-1.4,2.3l-21.1,28.1h-2.6l-21.2-28.2c-.8-1.1-1.4-2.1-2-3-.5-.9-1-1.9-1.4-2.7.1,1.2.2,2.2.2,3.2,0,1,0,1.9,0,2.8v34.8h-10.6Z"/>
        <path class="st4" d="M599.2,346v-56.3h57.6v9.6h-44.5v12.6h26v9.6h-26v13.9h45v10.6h-58.1Z"/>
        <path class="st4" d="M676.9,346v-56.3h48.1c4.5,0,7.7.9,9.7,2.6,2,1.7,3,4.5,3,8.3v13.2c0,3.8-1,6.6-3,8.3-2,1.7-5.2,2.6-9.7,2.6h-7.3l26,21.2h-18.8l-22.7-21.2h-12.4v21.2h-12.9ZM719.2,299.5h-29.4v15.6h29.4c2.3,0,3.8-.3,4.7-1,.8-.7,1.3-1.8,1.3-3.5v-6.8c0-1.6-.4-2.8-1.3-3.4-.8-.7-2.4-1-4.7-1Z"/>
        <g>
          <polygon class="st4" points="412.1 346 425.2 346 447.7 304.5 441.7 293.7 412.1 346"/>
          <polygon class="st4" points="444 289.7 456.6 289.7 488.8 346 474.1 346 444 289.7"/>
        </g>
      </g>
    </g>
    <g>
      <g>
        <rect class="st4" x="407.3" y="378.1" width="4.4" height="4.4"/>
        <path class="st0" d="M411.6,401v-15.8h-4.2v15.8h4.2ZM439.2,401.1v-3.9c-.6,0-1.1,0-1.5,0-.4,0-.8-.2-1-.4-.2-.2-.4-.5-.4-.9,0-.4,0-.9,0-1.5v-5.5h3v-3.6h-3v-6.2h-4.2v15.3c0,1.3.1,2.4.3,3.3.2.9.6,1.6,1.1,2.1s1.2.9,2,1.1c.8.2,1.9.3,3.2.3h.5ZM463.1,401v-23.2h-4.2v23.2h4.2ZM428,386.7c-1.2-1.2-2.8-1.9-4.8-1.9s-1.9.2-2.7.6c-.8.4-1.5,1-2.1,1.7l-.2.3v-2.3h-4.1v15.8h4.1v-8.4.6-.3c0-1.5.4-2.6,1.1-3.3.7-.7,1.6-1.1,2.6-1.1s2.1.4,2.7,1.1c.6.7.9,1.7.9,3h0v8.4h4.2v-9c0-2.2-.6-4-1.7-5.3ZM456.7,393.1c0-1.1-.2-2.2-.6-3.2-.4-1-1-1.9-1.7-2.6-.7-.7-1.6-1.3-2.6-1.7s-2.1-.6-3.3-.6-2.2.2-3.2.6c-1,.4-1.9,1-2.6,1.7s-1.3,1.6-1.7,2.6c-.4,1-.6,2.1-.6,3.2s.2,2.2.6,3.2c.4,1,1,1.9,1.7,2.6.7.7,1.6,1.3,2.6,1.7,1,.4,2.2.7,3.4.7,3.5,0,5.7-1.6,7-3.1l-3-2.3c-.6.7-2.1,1.8-4,1.8s-2.1-.3-2.9-.8c-.7-.5-1.2-1.3-1.5-2.2h0c0-.1,12.4-.1,12.4-.1v-1.5h0ZM444.3,391.6c0-1.2,1.3-3.2,4.2-3.2,2.9,0,4.2,2,4.2,3.2h-8.4Z"/>
        <path class="st0" d="M467.8,398.9c0-.2-.2-.3-.3-.5-.1-.1-.3-.2-.5-.3s-.4-.1-.6-.1-.4,0-.6.1c-.2,0-.3.2-.5.3-.1.1-.2.3-.3.5,0,.2-.1.4-.1.6s0,.4.1.6.2.3.3.5c.1.1.3.2.5.3s.4.1.6.1.4,0,.6-.1c.2,0,.3-.2.5-.3.1-.1.2-.3.3-.5,0-.2.1-.4.1-.6s0-.4-.1-.6ZM467.6,400c0,.2-.2.3-.3.4-.1.1-.2.2-.4.3s-.3,0-.5,0-.3,0-.5,0c-.2,0-.3-.2-.4-.3s-.2-.2-.3-.4c0-.2,0-.3,0-.5s0-.3,0-.5.2-.3.3-.4c.1-.1.2-.2.4-.3s.3,0,.5,0,.3,0,.5,0c.2,0,.3.2.4.3s.2.2.3.4c0,.2,0,.3,0,.5,0,.2,0,.3,0,.5ZM466.7,399.6c.1,0,.2,0,.3-.1s.1-.2.1-.3,0-.3-.2-.4c0,0-.3-.1-.5-.1h-.7v1.8h.3v-.7h.2l.4.7h.3l-.5-.7ZM466.5,399.4h-.4v-.5h.4s0,0,.1,0c0,0,0,0,0,0s0,0,0,.1,0,.1,0,.1c0,0,0,0,0,0,0,0,0,0-.1,0Z"/>
      </g>
      <path class="st0" d="M493.1,382.3v6.4h6.2v1.6h-6.2v6.5h-1.7v-6.5h-6.2v-1.6h6.2v-6.4h1.7Z"/>
      <g>
        <polygon class="st0" points="661.5 381.2 663.5 384.6 655.7 389.7 653.2 386.6 661.5 381.2"/>
        <path class="st0" d="M525.8,396c1.1,2,4.2,1.7,6.9,0-2.9-17.5,13.4-17.1,5.5.4-.8,1,1.9,1.2,3.4,0v3.5c-2.7,1.8-5.6.9-6.8-.3-6.4,4.3-15,1.7-13.6-6.3-6-11.3,4.2-16.6,10.5-13.9v4.6c-5-2.2-8.8,1.2-7.6,5.3,6.5-4.9,11,7.2,1.6,6.6ZM525.8,392.4c0,.5.4.9.9.9s.9-.4.9-.9-.4-.9-.9-.9-.9.4-.9.9ZM526.7,392.4,535.5,390.8c-.2,1.3,0,2.4.4,2.5.4,0,.9-1,1-2.3.2-1.3,0-2.4-.4-2.5-.4,0-.9,1-1,2.3ZM536.3,390.9"/>
        <path class="st0" d="M557.4,384c-15.6-3.7-11.3,20.5.4,11.4-.9-4.1,4.3-5.6,4.5-2.7,0,1.4,0,3.7,1.7,3.7,1.6.1,2.7-1.8.9-2-7-2.2.7-12.8,5-4.3,1.8,0,3.3.6,4.4,2,.1-.7,1.6-1.6,2.8-1.3v3.7c-1.2,0-2.1.6-2.1,1.9v3.7h-3.2v-3.5c0-1-.7-1.7-2.2-1.6,0,3-4.5,7-9.4,4-19.3,12.4-24.5-22.1-2.8-19.1v4.1ZM565.3,390.9c0,.4.3.7.7.7s.7-.3.7-.7-.3-.7-.7-.7-.7.3-.7.7ZM566,390.9"/>
        <path class="st0" d="M583.4,383l-.7,8.5h1.1c5.5-11.2,16.4-.7,4.6,4.5,1.6,2.1,3.9,1.2,5.8-.1v4.1c-2.3,2.3-8.4,2.2-10.2-3.1-.6-1.5-1.5-1.2-1.5-.7v4.4h-3.6v-5.9h-.8v-3.6h1.2l.5-8h3.6ZM588.2,391c-.4.6-.6,1.3-.3,1.5.3.2.9-.1,1.4-.8.4-.6.6-1.3.3-1.5-.3-.2-.9.1-1.4.8ZM588.7,391.4"/>
        <path class="st0" d="M604.5,373.6l1.1,13.4c1.8-.2,4.8.2,6.3,3.5,1.6-2.2,7.7-3.6,8.4,4.6v4.6h-4.1v-4.7c0-2.6-3-2.6-3,0v5.8h-3.9l-.4-6.9c-.3-2.1-3.6-3.4-2.8-.4.1,1.2,2.3,16-4.3,16.7-6-.3-5.5-15.6,0-21.2l-1.2-15.2h3.8ZM601.5,400c0,2.3.2,4.1.6,4.1.4,0,.8-1.8.9-4.1,0-2.3-.2-4.1-.6-4.1-.4,0-.8,1.8-.9,4.1ZM602.2,400"/>
        <path class="st0" d="M629.6,399.2v-1.3c-3.3,2.3-8.6,2.7-8.4-3.1.7-4,5-7.6,11.8-7.9v4.1c-5.2.3-7.9,2.5-7.3,4.5.5.6,3.3-1,4.4-3.8h3.9v5.3s1.6-.5,2.3-.8c-2.7-7.3.8-13.4,4.3-12.8,5.8,1,4.4,8.3.9,12.9.6.9,2,1.4,3.6.7-3.8-11.3,11.9-10.9,8.1-1.7,3.3-.9,9.9-6.9,14-6.6,7.6-.1,5.7,12.5-4.8,13v-4.1c.6-.1,3.2-1,4.5-2.3.9-1,.1-3.6-2.6-1.9l-9.2,5.7c-1.6.9-4.3,1.4-5.7.4-2.8,2.2-9.4,3.1-11.4-.3l-4.2,2.9c.4,2.9-.3,7.7-5.2,7.4-5.3-.4-5.5-7.7.9-10.2ZM628.5,404.3c0,.5.3,1,.8,1,.5,0,.9-.4.9-.9,0-.5-.3-1-.8-1-.5,0-.9.4-.9.9ZM629.4,404.4,639,390c-.2,1.2,0,2.3.4,2.4.4,0,.8-.9,1-2.2.2-1.2,0-2.3-.4-2.4s-.8.9-1,2.2ZM639.7,390.1,648.4,393.5c0,.8.4,1.5,1,1.5s1-.7,1-1.5-.4-1.5-1-1.5-1,.7-1,1.5ZM649.4,393.5"/>
      </g>
    </g>
  </g>
  <path class="st1" d="M295.1,326.8c0,4.5-3.6,8.1-8.1,8.1s-8.1-3.6-8.1-8.1,4-6,4-13.7v-59.7c0-2.2,1.8-4.1,4.1-4.1s4.1,1.8,4.1,4.1v59.7c0,7.7,4,7.6,4,13.7M258.6,273.3c0,4.5-3.6,8.1-8.1,8.1s-8.1-3.6-8.1-8.1,4-6,4-13.7v-62c0-2.2,1.8-4.1,4.1-4.1s4.1,1.8,4.1,4.1v62c0,7.7,4,7.6,4,13.7ZM240.4,283.9c0,4.5-3.6,8.1-8.1,8.1s-8.1-3.6-8.1-8.1,4-6,4-13.7v-84.6c0-2.2,1.8-4.1,4.1-4.1s4.1,1.8,4.1,4.1v84.6c0,7.7,4,7.6,4,13.7ZM240.4,418.8c0,4.5-3.6,8.1-8.1,8.1s-8.1-3.6-8.1-8.1,4-6,4-13.7v-83.4c0-2.2,1.8-4.1,4.1-4.1s4.1,1.8,4.1,4.1v83.4c0,7.7,4,7.6,4,13.7ZM258.6,400.1c0,4.5-3.6,8.1-8.1,8.1s-8.1-3.6-8.1-8.1,4-6,4-13.7v-75.2c0-2.2,1.8-4.1,4.1-4.1s4.1,1.8,4.1,4.1v75.2c0,7.7,4,7.6,4,13.7ZM276.8,380.8c0,4.5-3.6,8.1-8.1,8.1s-8.1-3.6-8.1-8.1,4-6,4-13.7v-147.2c0-2.2,1.8-4.1,4.1-4.1s4.1,1.8,4.1,4.1v147.2c-13.7-277.9,4,7.6,4,13.7ZM191.8,170c0-2.2,1.8-4.1,4.1-4.1s4.1,1.8,4.1,4.1v175.5c0,7.7,4,7.6,4,13.7s-3.6,8.1-8.1,8.1-8.1-3.6-8.1-8.1,4-6,4-13.7v-175.5ZM96.7,326.8c0,4.5,3.6,8.1,8.1,8.1s8.1-3.6,8.1-8.1-4-6-4-13.7v-59.7c0-2.2-1.8-4.1-4.1-4.1s-4.1,1.8-4.1,4.1v59.7c0,7.7-4,7.6-4,13.7ZM133.1,273.3c0,4.5,3.6,8.1,8.1,8.1s8.1-3.6,8.1-8.1-4-6-4-13.7v-62c0-2.2-1.8-4.1-4.1-4.1s-4.1,1.8-4.1,4.1v62c0,7.7-4,7.6-4,13.7ZM151.3,283.9c0,4.5,3.6,8.1,8.1,8.1s8.1-3.6,8.1-8.1-4-6-4-13.7v-84.6c0-2.2-1.8-4.1-4.1-4.1s-4.1,1.8-4.1,4.1v84.6c0,7.7-4,7.6-4,13.7ZM151.3,418.8c0,4.5,3.6,8.1,8.1,8.1s8.1-3.6,8.1-8.1-4-6-4-13.7v-83.4c0-2.2-1.8-4.1-4.1-4.1s-4.1,1.8-4.1,4.1v83.4c0,7.7-4,7.6-4,13.7ZM133.1,400.1c0,4.5,3.6,8.1,8.1,8.1s8.1-3.6,8.1-8.1-4-6-4-13.7v-75.2c0-2.2-1.8-4.1-4.1-4.1s-4.1,1.8-4.1,4.1v75.2c0,7.7-4,7.6-4,13.7ZM114.9,380.8c0,4.5,3.6,8.1,8.1,8.1s8.1-3.6,8.1-8.1-4-6-4-13.7v-147.2c0-2.2-1.8-4.1-4.1-4.1s-4.1,1.8-4.1,4.1v147.2c0,7.7-4,7.6-4,13.7ZM177.6,169.8c-2.2,0-4.1,1.8-4.1,4.1v106.8c0,7.7-4,7.6-4,13.7s3.6,8.1,8.1,8.1,8.1-3.6,8.1-8.1-4-6-4-13.7v-106.8c0-2.2-1.8-4.1-4.1-4.1ZM214.1,168.5c2.2,0,4.1,1.8,4.1,4.1v108.1c0,7.7,4,7.6,4,13.7s-3.6,8.1-8.1,8.1-8.1-3.6-8.1-8.1,4-6,4-13.7v-108.1c0-2.2,1.8-4.1,4.1-4.1Z"/>
</svg>